<?xml version="1.0" encoding="UTF-8"?>
<svg enable-background="new 0 0 595.28 841.89" viewBox="0 0 595.28 841.89" xmlns="http://www.w3.org/2000/svg">
 <defs>
  <linearGradient id="e" x2="0" y1="1145.8" y2="936.99" gradientTransform="matrix(.9451 .3268 .3268 -.9451 -196.23 1147.5)" gradientUnits="userSpaceOnUse">
   <stop stop-color="#e6e6e6" offset="0"/>
   <stop stop-color="#f2f2f2" offset="1"/>
  </linearGradient>
  <linearGradient id="d" x2="0" y1="1146.8" y2="936.84" gradientTransform="matrix(.9451 .3268 .3268 -.9451 -196.23 1147.5)" gradientUnits="userSpaceOnUse">
   <stop stop-color="#e6e6e6" offset="0"/>
   <stop stop-color="#f2f2f2" offset="1"/>
  </linearGradient>
  <linearGradient id="c" x2="0" y1="943.62" y2="804.78" gradientTransform="matrix(.9451 .3268 .3268 -.9451 -196.23 1147.5)" gradientUnits="userSpaceOnUse">
   <stop stop-color="#fff" offset="0"/>
   <stop stop-color="#fff" offset=".0896"/>
   <stop stop-color="#fff" offset="1"/>
  </linearGradient>
  <linearGradient id="b" x2="0" y1="600.64" y2="450.44" gradientUnits="userSpaceOnUse">
   <stop stop-color="#adc1ca" offset="0"/>
   <stop stop-color="#cdcccc" offset="1"/>
  </linearGradient>
  <linearGradient id="a" x2="0" y1="480.84" y2="360.62" gradientUnits="userSpaceOnUse">
   <stop stop-color="#f2f2f2" stop-opacity=".81" offset="0"/>
   <stop stop-color="#f2f2f2" stop-opacity=".65" offset="1"/>
  </linearGradient>
  <linearGradient id="i" x2="0" y1="522.41" y2="433.17" gradientUnits="userSpaceOnUse">
   <stop stop-color="#f2f2f2" stop-opacity=".81" offset="0"/>
   <stop stop-color="#f2f2f2" stop-opacity=".65" offset="1"/>
  </linearGradient>
  <linearGradient id="h" x2="0" y1="519.71" y2="448.51" gradientUnits="userSpaceOnUse">
   <stop stop-color="#f2f2f2" stop-opacity=".81" offset="0"/>
   <stop stop-color="#f2f2f2" stop-opacity=".65" offset="1"/>
  </linearGradient>
  <linearGradient id="g" x2="0" y1="1061.6" y2="996.78" gradientTransform="matrix(.9451 .3268 .3268 -.9451 -196.23 1147.5)" gradientUnits="userSpaceOnUse">
   <stop stop-color="#e6e6e6" offset="0"/>
   <stop stop-color="#f2f2f2" offset="1"/>
  </linearGradient>
  <linearGradient id="f" x2="0" y1="746.48" y2="506.41" gradientUnits="userSpaceOnUse">
   <stop stop-color="#ccc" offset="0"/>
   <stop stop-color="#cbcbcc" offset=".0104"/>
   <stop stop-color="#b3bfc5" offset=".2222"/>
   <stop stop-color="#a2b6c1" offset=".4468"/>
   <stop stop-color="#98b1be" offset=".6932"/>
   <stop stop-color="#95afbd" offset="1"/>
  </linearGradient>
 </defs>
 <path d="m513.67 373.74c1.127-2.784 2.186-5.606 3.177-8.476-0.991 2.87-2.05 5.692-3.177 8.476z" fill="#f2f2f2"/>
 <path d="m513.329,374.524c.107-.264.232-.531.339-.788-.106.257-.231.525-.339.788z" fill="url(#e)"/>
 <path d="m297.15 466.58c57.561 19.901 114.38 6.655 126.91-29.582 9.295-26.876-8.409-58.851-41.664-81.702 5.767-9.813 10.66-20.328 14.524-31.497 12.588-36.413 12.399-74.131 1.852-108.32 71.623 31.309 112.91 106.26 103.06 182.13 4.348-7.301 8.184-15.014 11.501-23.087-34.85 85.058-130.51 129.06-218.45 98.646-21.16-7.317-39.979-18.325-56.06-32.015 3.39-0.135 6.771-0.37 10.13-0.7 13.25 10.598 29.62 19.7 48.209 26.126z" fill="#f2f2f2"/>
 <path d="m513.668,373.736c-.106.257-.231.524-.339.788-3.317,8.073-7.153,15.786-11.501,23.087 9.859-75.876-31.432-150.823-103.055-182.132-9.715-31.491-28.231-59.937-53.705-81.63 21.094-.832 42.7,2.125 63.86,9.439 91.095,31.497 139.41,130.872 107.916,221.973-.99,2.869-2.049,5.691-3.176,8.475z" fill="#f2f2f2"/>
 <path d="m513.668,373.736c-.106.257-.231.524-.339.788-3.317,8.073-7.153,15.786-11.501,23.087 9.859-75.876-31.432-150.823-103.055-182.132-9.715-31.491-28.231-59.937-53.705-81.63 21.094-.832 42.7,2.125 63.86,9.439 91.095,31.497 139.41,130.872 107.916,221.973-.99,2.869-2.049,5.691-3.176,8.475z" fill="url(#d)"/>
 <path d="m424.06 437c-12.53 36.237-69.347 49.483-126.91 29.582-18.589-6.426-34.959-15.528-48.209-26.126 54.71-5.377 104.89-36.507 133.45-85.158 33.254 22.851 50.958 54.826 41.664 81.702z" fill="#f2f2f2"/>
 <path d="m424.06 437c-12.53 36.237-69.347 49.483-126.91 29.582-18.589-6.426-34.959-15.528-48.209-26.126 54.71-5.377 104.89-36.507 133.45-85.158 33.254 22.851 50.958 54.826 41.664 81.702z" fill="url(#c)"/>
 <path d="m513.668,373.736c-.106.257-.231.524-.339.788-.995,2.42-2.053,4.793-3.139,7.147-.286.621-.587,1.239-.882,1.858-.892,1.874-1.814,3.723-2.766,5.55-.251.483-.493.967-.754,1.45-1.274,2.397-2.583,4.768-3.961,7.081 .003-.009.006-.037.006-.044-41.419,69.681-127.344,103.136-206.958,75.604-21.16-7.317-39.979-18.325-56.06-32.015 3.39-.135 6.771-.37 10.13-.7 54.71-5.377 104.894-36.507 133.452-85.158 5.767-9.813 10.66-20.328 14.524-31.497 12.588-36.413 12.399-74.131 1.852-108.321-9.715-31.491-28.231-59.937-53.705-81.63 21.094-.832 42.7,2.125 63.86,9.439 91.095,31.497 139.41,130.872 107.916,221.973-.99,2.869-2.049,5.691-3.176,8.475z" fill="#f9ea32"/>
 <path d="m497.39 442.2c-29.281 0-54.833 15.893-68.541 39.514-15.187-31.148-51.257-53.068-93.348-53.068-27.062 0-51.612 9.078-69.75 23.813-11.68-55.699-61.06-97.523-120.23-97.523-67.847 0-122.86 55.005-122.86 122.86s55.008 122.85 122.86 122.85h351.87c43.751 0 79.216-35.471 79.216-79.22-1e-3 -43.755-35.465-79.223-79.216-79.223z" fill="#cdcccc"/>
 <path d="m497.39 569.08c-29.485 0-55.185-16.122-68.829-40.01-15.354 30.835-51.235 52.46-93.06 52.46-51.292 0-93.634-32.539-100.14-74.684-22.428 24.041-54.365 39.093-89.84 39.093-58.441 0-107.32-40.823-119.76-95.501-2.004 8.802-3.098 17.942-3.098 27.356 0 67.85 55.008 122.85 122.86 122.85h351.87c43.751 0 79.216-35.471 79.216-79.22 0-5.408-0.536-10.679-1.575-15.783-7.318 36.191-39.299 63.44-77.641 63.44z" fill="url(#b)"/>
 <path d="m497.39 428.64c-26.682 0-50.746 11.342-67.684 29.419-20.708-25.935-55.206-42.96-94.205-42.96-22.78 0-44.009 5.819-61.867 15.823-19.161-52.192-69.357-89.537-128.11-89.537-75.212 0-136.4 61.183-136.4 136.4 0 75.211 61.186 136.4 136.4 136.4h351.87c51.156 0 92.768-41.617 92.768-92.771s-41.612-92.776-92.768-92.776zm0 172h-351.87c-67.847 0-122.86-54.999-122.86-122.85s55.008-122.86 122.86-122.86c54.079 0 99.96 34.962 116.37 83.498 1.551 4.561 2.854 9.234 3.858 14.025 1.714 8.174 2.625 16.643 2.625 25.335 0 3.242-0.164 6.46-0.412 9.646-1.704 8.884 12.202 11.433 13.485 1.274 0.289-3.609 0.474-7.238 0.474-10.92 0-11.624-1.466-22.899-4.212-33.67 16.379-9.749 36.291-15.479 57.79-15.479 36.02 0 67.617 16.054 85.504 40.211-6.523 9.449-11.332 20.162-14.001 31.686-1.381 8.093 10.924 11.194 13.643 1.293 1.827-7.141 4.59-13.905 8.202-20.121 2.518-4.356 5.446-8.438 8.724-12.21 14.524-16.719 35.929-27.304 59.817-27.304 43.751 0 79.216 35.468 79.216 79.223s-35.466 79.22-79.217 79.22z" fill="#fff"/>
 <path d="m235.34 420.73c0 33.195-39.796 60.109-88.888 60.109s-88.881-26.914-88.881-60.109 39.795-60.106 88.881-60.106 88.888 26.907 88.888 60.106z" fill="url(#a)"/>
 <path d="m412.21 477.79c0 24.638-33.901 44.614-75.72 44.614s-75.713-19.977-75.713-44.614 33.895-44.625 75.713-44.625 75.72 19.983 75.72 44.625z" fill="url(#i)"/>
 <path d="m555.01 484.11c0 19.656-25.571 35.6-57.105 35.6-31.535 0-57.096-15.943-57.096-35.6 0-19.669 25.561-35.603 57.096-35.603s57.105 15.934 57.105 35.603z" fill="url(#h)"/>
 <path d="m258.49 343.22-13.812-21.063-24.296 6.633 15.765-19.647-13.812-21.07 23.552 8.921 15.767-19.653-1.209 25.172 23.553 8.915-24.296 6.63z" fill="#f9ea32"/>
 <path d="m265.48 223.06-11.021-6.296-11.438 5.505 2.593-12.43-8.774-9.185 12.619-1.375 6.02-11.178 5.208 11.583 12.491 2.263-9.396 8.535z" fill="#f9ea32"/>
 <path d="m149.76 235.52-15.065 4.903v15.833l-9.313-12.814-15.061 4.898 9.307-12.82-9.307-12.807 15.061 4.891 9.313-12.821v15.846z" fill="#f9ea32"/>
 <path d="m240.97,235.352c.351-.866.68-1.744.988-2.636-.309.891-.638,1.769-.988,2.636z" fill="#f2f2f2"/>
 <path d="m240.864,235.597c.033-.082.072-.161.105-.245-.032.084-.072.163-.105.245z" fill="url(#g)"/>
 <path d="m212.805,756.044c-.949,0-1.917-.071-2.884-.226-6.015-.957-10.885-4.766-13.442-9.831h-3.483l1.727-11.065 8.053-50.789-5.981-8.222h-15.397l-5.976,8.222 9.45,59.682-2.437.534c-2.277,5.864-7.521,10.415-14.164,11.47-.972.154-1.934.226-2.883.226-5.42,0-10.32-2.323-13.676-6.128l-2.791.557-3.906-24.486-11.105,15.293c-3.433,4.715-8.964,7.537-14.803,7.537-3.881,0-7.599-1.213-10.744-3.5-3.951-2.865-6.552-7.104-7.317-11.928-.766-4.829.394-9.662 3.268-13.62l11.107-15.284-24.415,3.86-.352-2.817c-5.604-2.406-9.782-7.541-10.787-13.937-.763-4.806.39-9.635 3.26-13.582 .708-.979 1.503-1.872 2.367-2.678l-.746-3.01 10.295-1.649 50.781-8.038 2.147-2.956c-.753-2.313-1.144-4.742-1.144-7.236v-12.753l-9.448-3.065-53.631,27.322-1.258-2.027c-6.591-.271-12.48-4.029-15.499-9.943-2.219-4.369-2.608-9.311-1.1-13.951 .629-1.943 1.562-3.729 2.751-5.322l-.463-1.838 6.78-3.492 13.219-6.738-17.968-5.83c-9.587-3.137-14.848-13.473-11.744-23.039 2.456-7.571 9.45-12.66 17.398-12.66 1.911,0 3.813.313 5.64.904l17.981,5.842-11.318-22.215 2.703-1.201c.135-1.259.401-2.517.802-3.744 1.506-4.645 4.732-8.426 9.085-10.645 2.555-1.296 5.422-1.984 8.288-1.984 3.107,0 6.079.775 8.699,2.184l2.693-1.797 4.904,9.571 23.341,45.809 1.734.565c4.179-6.626 11.578-11.074 19.874-11.074h.521v-5.556l-43.125-43.126 1.938-1.94c-1.407-5.958.204-12.497 4.838-17.146 3.458-3.453 8.043-5.348 12.919-5.348 2.725,0 5.358.587 7.751,1.705l1.19-.327 14.488,14.452v-18.9c0-10.087 8.2-18.294 18.287-18.294 10.084,0 18.292,8.207 18.292,18.294l-.001,18.9 14.947-14.945 1.369.543c2.22-.938 4.626-1.428 7.111-1.428 4.878,0 9.466,1.895 12.911,5.348 4.482,4.486 6.14,10.746 4.98,16.535l2.329,1.996-7.29,7.318-36.362,36.362v5.556h.571c8.279,0 15.666,4.448 19.848,11.063l1.713-.554 27.997-54.95 2.597,1.567c2.699-1.533 5.803-2.377 9.053-2.377 2.857,0 5.722.682 8.279,1.978 5.97,3.047 9.556,8.953 9.939,15.19l2.188,1.255-10.856,21.359 17.968-5.842c1.84-.592 3.736-.904 5.649-.904 7.947,0 14.942,5.089 17.398,12.652 3.111,9.582-2.151,19.917-11.728,23.039l-17.985,5.838 22.356,11.398-1.556,2.599c.6,1.069 1.1,2.203 1.488,3.397 1.506,4.645 1.118,9.59-1.1,13.936-2.993,5.88-8.818,9.628-15.355,9.951l-1.244,2.084-7.978-4.023-45.804-23.352-9.408,3.062v12.757c0,2.513-.392,4.957-1.162,7.289l2.115,2.903 60.624,9.604-.576,2.867c4.489,4.008 6.921,10.131 5.915,16.485-1.071,6.728-5.627,12.058-11.67,14.286l-.562,2.275-23.33-3.668 11.109,15.291c5.925,8.155 4.111,19.621-4.051,25.541-3.144,2.287-6.86,3.5-10.744,3.5-5.838,0-11.373-2.822-14.799-7.537l-11.111-15.293-3.874,24.49-2.82-.561c-3.358,3.793-8.256,6.128-13.672,6.128zm-14.488-113.23v-18.396h-18.393v18.396h18.393z" fill="#fff"/>
 <path d="m310.635,594.711c-1.491-4.588-6.413-7.097-10.993-5.609l-39.931,12.977 17.214-33.794h-.02l.006-.003c2.176-4.295.473-9.53-3.809-11.707-4.282-2.185-9.512-.479-11.698,3.797l-.022-.016-25.141,49.342-14.41,4.682c-.211-7.465-6.361-13.499-13.874-13.499h-10.136v-19.085l39.162-39.16-.015-.02c3.396-3.397 3.396-8.904 0-12.305s-8.907-3.401-12.302,0h-.023l-26.822,26.807 .006-41.986c0-4.82-3.914-8.723-8.727-8.723-4.819,0-8.723,3.902-8.723,8.723v41.986l-26.822-26.807h-.021c-3.399-3.401-8.904-3.401-12.302,0s-3.396,8.907-.002,12.305l-.013.02 39.159,39.16v19.085h-10.085c-7.641,0-13.898,6.257-13.898,13.895 0-.12.017-.252.019-.372l-14.456-4.701-25.138-49.346-.019.016c-2.187-4.287-7.417-5.985-11.699-3.797-4.286,2.177-5.989,7.412-3.804,11.695v.012l-.019.003 17.217,33.794-39.934-12.978c-4.588-1.487-9.505,1.021-11,5.609-1.484,4.576 1.017,9.494 5.608,10.994l39.929,12.968-33.793,17.217 .015.026c0,0-.004,0-.004.008-4.281,2.173-5.989,7.404-3.806,11.699 2.187,4.274 7.42,5.98 11.705,3.8l.011.011 49.346-25.133 19.823,6.437v19.702c0,3.074 1.019,5.902 2.713,8.2h-.007l-7.859,10.825-54.703,8.659 .005.019c-4.744.758-7.981,5.213-7.228,9.951 .75,4.754 5.205,7.985 9.953,7.243h.002v.015l37.464-5.932-24.68,33.974c-2.833,3.896-1.972,9.353 1.93,12.185 3.902,2.84 9.354,1.975 12.188-1.92l24.68-33.986 5.937,37.47h.021c.751,4.746 5.205,7.981 9.957,7.228 4.744-.757 7.979-5.205 7.231-9.951l.019-.007-8.659-54.698 11.166-15.375h25.146l11.172,15.379-8.667,54.701h.021c-.748,4.746 2.492,9.198 7.237,9.951s9.204-2.481 9.959-7.228h.022l5.927-37.47 24.686,33.986c2.833,3.895 8.284,4.76 12.183,1.92 3.906-2.832 4.768-8.289 1.937-12.185l-24.681-33.966 37.459,5.924 .006-.015h.001c4.748.742 9.204-2.489 9.955-7.243 .749-4.738-2.485-9.183-7.229-9.947l.002-.016-54.696-8.666-7.84-10.799h-.002c1.71-2.301 2.734-5.152 2.734-8.227v-19.713l19.784-6.426 49.342,25.141 .011-.019c4.278,2.185 9.519.482 11.695-3.8 2.185-4.287.481-9.526-3.799-11.699l.013-.026-33.803-17.225 39.941-12.968c4.576-1.495 7.078-6.417 5.595-10.993zm-150.524,67.152 .024.012c-.005-.004-.011-.004-.024-.012zm3.784,2.889c.051.035.105.061.158.08-.053-.019-.108-.045-.158-.08zm1.355.626c.128.049.264.095.39.14-.126-.045-.262-.091-.39-.14zm1.447.464c.156.045.316.102.477.139-.161-.038-.321-.094-.477-.139zm1.559.327c.156.03.307.063.459.075-.152-.012-.303-.045-.459-.075zm32.679-13.793h-23.62c-3.825,0-6.949-3.134-6.949-6.953v-23.624c0-3.818 3.125-6.949 6.949-6.949h23.62c3.819,0 6.951,3.131 6.951,6.949v23.624c0,3.819-3.132,6.953-6.951,6.953zm11.657,13.145c.134-.049.264-.095.396-.14l-.396.14zm-3.066.723c.154-.012.309-.045.465-.075-.156.03-.31.063-.465.075zm1.542-.264c.16-.037.318-.094.477-.139-.158.046-.314.102-.477.139zm3.271-1.216-.172.091 .172-.091z" fill="url(#f)"/>
</svg>
